<?xml version="1.0" encoding="utf-8"?>
<!-- Generator: Adobe Illustrator 22.0.1, SVG Export Plug-In . SVG Version: 6.00 Build 0)  -->
<svg version="1.1" id="Layer_1" xmlns="http://www.w3.org/2000/svg" xmlns:xlink="http://www.w3.org/1999/xlink" x="0px" y="0px"
	 viewBox="0 0 100 100" style="enable-background:new 0 0 100 100;" xml:space="preserve">
<style type="text/css">
	.st0{fill:#FFFFFF;}
</style>
<g>
	<path class="st0" d="M50.2,10c-22.1,0-40,17.9-40,40s17.9,40,40,40s40-17.9,40-40S72.3,10,50.2,10z M50.2,83.1
		C32,83.1,17.2,68.2,17.2,50S32,16.9,50.2,16.9S83.3,31.8,83.3,50S68.5,83.1,50.2,83.1z"/>
	<polygon class="st0" points="53.7,46.5 53.7,27.5 46.8,27.5 46.8,46.5 24.9,46.5 24.9,53.5 46.8,53.5 46.8,72.5 53.7,72.5 
		53.7,53.5 75.5,53.5 75.5,46.5 	"/>
</g>
</svg>
